<svg xmlns="http://www.w3.org/2000/svg" viewBox="6 28 188 188" ><defs><radialGradient id="hg2b" cx=".36" cy=".28" r=".85"><stop offset="0" stop-color="#d3cef8"/><stop offset=".4" stop-color="#988dee"/><stop offset=".78" stop-color="#6c5ce7"/><stop offset="1" stop-color="#5348ae"/></radialGradient><linearGradient id="hg2e" x1="0" y1="0" x2="0" y2="1"><stop offset="0" stop-color="#fff0a6"/><stop offset="1" stop-color="#ffc43d"/></linearGradient></defs><ellipse cx="100" cy="210" rx="58" ry="8" fill="#1f1d36" opacity=".15"/><g><ellipse cx="78" cy="200" rx="17" ry="9" fill="#5348ae" stroke="#1f1d36" stroke-width="4" stroke-linejoin="round" stroke-linecap="round"/><ellipse cx="122" cy="200" rx="17" ry="9" fill="#5348ae" stroke="#1f1d36" stroke-width="4" stroke-linejoin="round" stroke-linecap="round"/><g><path d="M40 98L18 124L40 150" fill="none" stroke="#1f1d36" stroke-width="19" stroke-linecap="round" stroke-linejoin="round"/><path d="M40 98L18 124L40 150" fill="none" stroke="url(#hg2e)" stroke-width="10" stroke-linecap="round" stroke-linejoin="round"/></g><g><path d="M160 98L182 124L160 150" fill="none" stroke="#1f1d36" stroke-width="19" stroke-linecap="round" stroke-linejoin="round"/><path d="M160 98L182 124L160 150" fill="none" stroke="url(#hg2e)" stroke-width="10" stroke-linecap="round" stroke-linejoin="round"/></g><g><rect x="93" y="36" width="14" height="36" rx="7" fill="#2ec4b6" stroke="#1f1d36" stroke-width="4" stroke-linejoin="round" stroke-linecap="round"/><rect x="97" y="41" width="4" height="12" rx="2" fill="#ffffff" opacity=".6"/></g><path d="M100 70C150 70 162 86 162 130C162 178 150 198 100 198C50 198 38 178 38 130C38 86 50 70 100 70Z" fill="url(#hg2b)" stroke="#1f1d36" stroke-width="4" stroke-linejoin="round" stroke-linecap="round"/><path d="M56 108C58 92 68 84 82 81" fill="none" stroke="#ffffff" stroke-width="7" stroke-linecap="round" opacity=".6"/><circle cx="55" cy="121" r="3.5" fill="#ffffff" opacity=".7"/><path d="M62 182C82 192 118 192 138 182" fill="none" stroke="#ffffff" stroke-width="4" stroke-linecap="round" opacity=".35"/><ellipse cx="62" cy="146" rx="9" ry="5.5" fill="#ff7eb6" opacity=".55"/><ellipse cx="138" cy="146" rx="9" ry="5.5" fill="#ff7eb6" opacity=".55"/><g><ellipse cx="80" cy="126" rx="11" ry="14" fill="#1c1240"/><ellipse cx="120" cy="126" rx="11" ry="14" fill="#1c1240"/><circle cx="84" cy="120" r="4.5" fill="#ffffff"/><circle cx="124" cy="120" r="4.5" fill="#ffffff"/><circle cx="77" cy="132" r="2" fill="#ffffff"/><circle cx="117" cy="132" r="2" fill="#ffffff"/></g><path d="M92 150C96 156 104 156 108 150" fill="none" stroke="#1f1d36" stroke-width="4" stroke-linejoin="round" stroke-linecap="round"/></g></svg>